Coordinates
version=1
nRows=16
nColumns=33
inDegrees=yes

Units are S.I. units (second, meters, Newtons, ...)
Angles are in degrees.

endheader
time	ground_thorax_rot_x	ground_thorax_rot_y	ground_thorax_rot_z	ground_thorax_tx	ground_thorax_ty	ground_thorax_tz	clav_prot_r	clav_elev_r	scapula_abduction_r	scapula_elevation_r	scapula_upward_rot_r	scapula_winging_r	shoulder_elv_r	plane_of_elev_r	axial_rot_r	elbow_flexion_r	pro_sup_r	wrist_flex_r	wrist_dev_r	clav_prot_l	clav_elev_l	scapula_abduction_l	scapula_elevation_l	scapula_upward_rot_l	scapula_winging_l	shoulder_elv_l	plane_of_elev_l	axial_rot_l	elbow_flexion_l	pro_sup_l	wrist_flex_l	wrist_dev_l
      7.51000000	     23.43638627	     33.21622372	     53.50541608	     88.62225954	    780.83168931	    -39.40222146	     13.16228914	     36.33290871	     28.10988935	     45.00000000	    -45.00000000	  -1881.92722394	  -2449.46204269	     21.41945726	   -164.32747049	   -358.97022561	    170.83790030	     12.30699487	     11.74109325	    -13.80847354	    -45.00000000	    -35.87529381	     45.00000000	    -45.00000000	  -2779.22871039	     75.01295011	     25.27345545	     28.57119761	   2150.38930987	     48.06561964	     10.84623457	    -16.25265370
      7.52000000	     23.35603685	     33.27276344	     53.57701578	     89.18263845	    780.56466725	    -39.39122629	     13.70307131	     36.43118365	     28.07313334	     45.00000000	    -45.00000000	  -1881.74763267	  -2449.31376544	     21.09395403	   -164.07012703	   -359.13307461	    170.95551358	     12.46642727	     11.48227891	    -13.54892224	    -45.00000000	    -35.76570589	     45.00000000	    -45.00000000	  -2779.27497381	     75.02091501	     25.27440773	     28.24941975	   2150.54545503	     48.11704126	     10.95320959	    -16.04315804
      7.53000000	     23.39594316	     33.21922111	     53.53629402	     89.61845384	    780.31356418	    -39.39819314	     13.32025846	     36.27011573	     28.05206532	     45.00000000	    -45.00000000	  -1881.97077005	  -2449.35032215	     21.45965606	   -163.72092612	   -358.92069206	    171.16256587	     12.39424839	     11.68181658	    -13.76852556	    -45.00000000	    -35.78580799	     45.00000000	    -45.00000000	  -2779.14193759	     74.95156466	     25.24948053	     28.25356668	   2150.53353852	     48.11019277	     10.68101231	    -16.37073412
      7.54000000	     23.33339179	     33.15697864	     53.54200060	     89.92502035	    780.07235584	    -39.42221389	     13.61817080	     36.62951420	     28.03820581	     45.00000000	    -45.00000000	  -1881.46096392	  -2449.19744076	     20.87784479	   -163.65043640	   -359.07043169	    171.36026338	     12.59735620	     11.24550897	    -13.51759192	    -45.00000000	    -35.66641303	     45.00000000	    -45.00000000	  -2779.26475826	     75.07469094	     25.20682324	     28.08760691	   2150.71459752	     48.24182343	     10.97509800	    -15.85756564
      7.55000000	     23.28350685	     33.13905371	     53.50400582	     90.11302454	    779.82493872	    -39.46181122	     13.39799238	     36.41514681	     28.10662856	     45.00000000	    -45.00000000	  -1881.89198782	  -2449.46375566	     21.20951890	   -163.47345739	   -358.96484743	    171.64715602	     12.56222555	     11.51897425	    -13.71110435	    -45.00000000	    -35.77171142	     45.00000000	    -45.00000000	  -2779.11585593	     75.11345688	     25.29670987	     28.09969860	   2150.54243798	     48.25183980	     10.68269375	    -16.25843492
      7.56000000	     23.36516100	     33.10090657	     53.31200302	     90.17376093	    779.57285831	    -39.51293776	     13.53628965	     36.39320735	     27.95183371	     45.00000000	    -45.00000000	  -1881.66982632	  -2449.19011115	     21.05895008	   -163.26829327	   -359.11088742	    171.89892581	     12.63882528	     11.55379897	    -13.60035196	    -45.00000000	    -35.76874988	     45.00000000	    -45.00000000	  -2779.23292150	     75.09259616	     25.21383829	     27.96319331	   2150.75422401	     48.30781764	     10.85263356	    -16.07798464
      7.57000000	     23.30961855	     33.05256706	     53.36487606	     90.11482898	    779.30613779	    -39.57294436	     13.43717507	     36.39713299	     28.00066363	     45.00000000	    -45.00000000	  -1881.93764329	  -2449.41656525	     21.28500472	   -163.15083554	   -358.94225351	    172.11187014	     12.64115261	     11.53449003	    -13.69926491	    -45.00000000	    -35.77009756	     45.00000000	    -45.00000000	  -2779.06852704	     75.10106749	     25.29291873	     27.94243113	   2150.57431946	     48.29542721	     10.61558129	    -16.31052488
      7.58000000	     23.43551555	     32.97382427	     53.16464771	     89.94067130	    779.01923675	    -39.63963880	     13.46941637	     36.42646618	     27.91725402	     45.00000000	    -45.00000000	  -1881.54808342	  -2449.02615223	     20.94151577	   -162.91848038	   -359.10051155	    172.32304191	     12.71483153	     11.58727882	    -13.57544564	    -45.00000000	    -35.71478212	     45.00000000	    -45.00000000	  -2779.19900196	     75.13379041	     25.14331660	     27.76327467	   2150.86380116	     48.32804324	     10.91699887	    -15.96875530
      7.59000000	     23.32141901	     33.01099631	     53.31593383	     89.65931072	    778.71256053	    -39.71107049	     13.45431709	     36.30487973	     27.95576798	     45.00000000	    -45.00000000	  -1882.21725824	  -2449.49883662	     21.49200792	   -162.85410923	   -358.68648340	    172.45224038	     12.61196978	     11.50305403	    -13.73188951	    -45.00000000	    -35.78371071	     45.00000000	    -45.00000000	  -2778.88442609	     75.14710793	     25.32340434	     27.78419947	   2150.48752728	     48.23505260	     10.46561282	    -16.53563875
      7.60000000	     23.34946369	     32.89070438	     53.18002078	     89.27170918	    778.37862733	    -39.78873365	     13.45595292	     36.33610499	     27.93683016	     45.00000000	    -45.00000000	  -1881.74724227	  -2449.25858350	     20.96711138	   -162.65428453	   -358.92532672	    172.61907683	     12.70053154	     11.52666568	    -13.58541329	    -45.00000000	    -35.74281568	     45.00000000	    -45.00000000	  -2779.00898781	     75.23679097	     25.14704203	     27.56965671	   2150.76132056	     48.22781402	     10.88390121	    -16.12065418
      7.61000000	     23.39086146	     32.82658223	     53.00420943	     88.79215589	    778.02599245	    -39.87178326	     13.40262173	     36.43742376	     27.85757812	     45.00000000	    -45.00000000	  -1881.84751513	  -2449.26694560	     21.08052723	   -162.45547121	   -358.90716740	    172.72911620	     12.71927823	     11.64553502	    -13.62869130	    -45.00000000	    -35.79135907	     45.00000000	    -45.00000000	  -2778.98022596	     75.18982787	     25.18919624	     27.40095426	   2150.76135532	     48.15574021	     10.64707533	    -16.16471415
      7.62000000	     23.45543931	     32.76551136	     52.90402972	     88.23021408	    777.65721061	    -39.96133552	     13.41772677	     36.32149095	     27.71835804	     45.00000000	    -45.00000000	  -1881.75227506	  -2449.13947619	     21.04264198	   -162.28008897	   -358.93971304	    172.80979729	     12.70493274	     11.59284450	    -13.60125155	    -45.00000000	    -35.68296519	     45.00000000	    -45.00000000	  -2779.00101932	     75.20460101	     25.13941370	     27.22116975	   2150.78264172	     48.13026735	     10.88100547	    -16.07660345
      7.63000000	     23.48284153	     32.70087627	     52.80491044	     87.58581774	    777.27001193	    -40.05960543	     13.37221248	     36.47741411	     27.71797739	     45.00000000	    -45.00000000	  -1881.90185353	  -2449.21597572	     21.11598545	   -162.11837929	   -358.86090047	    172.87732243	     12.71519119	     11.71893105	    -13.62530998	    -45.00000000	    -35.76527151	     45.00000000	    -45.00000000	  -2778.87815772	     75.16284222	     25.14405732	     27.03318463	   2150.76486162	     48.05053824	     10.54508122	    -16.17918138
      7.64000000	     23.50189888	     32.57090254	     52.59073262	     86.87104668	    776.87054654	    -40.16601898	     13.37786112	     36.21717311	     27.44852682	     45.00000000	    -45.00000000	  -1881.64729473	  -2449.05140768	     21.01272628	   -161.87904592	   -359.04185153	    172.95207572	     12.69651839	     11.47693175	    -13.55405263	    -45.00000000	    -35.51127140	     45.00000000	    -45.00000000	  -2778.95846907	     75.43332331	     25.23811479	     26.83457307	   2150.92417599	     48.06845675	     11.18625883	    -15.94352899
      7.65000000	     23.49006932	     32.57930354	     52.68495178	     86.08151464	    776.45559436	    -40.28163582	     13.42962375	     36.43450122	     27.53417948	     45.00000000	    -45.00000000	  -1881.96372706	  -2449.13809964	     21.12110960	   -161.79505935	   -358.87662285	    173.00417636	     12.72929463	     11.69198708	    -13.54601592	    -45.00000000	    -35.75004791	     45.00000000	    -45.00000000	  -2778.75759149	     75.22137469	     25.11858656	     26.64389398	   2150.71608932	     47.98982852	     10.56549783	    -16.16028112
      7.66000000	     23.64566240	     32.41836366	     52.40775333	     85.22726222	    776.03019277	    -40.40468166	     13.23661486	     36.29419568	     27.55234417	     45.00000000	    -45.00000000	  -1881.74128131	  -2449.00491851	     20.87271833	   -161.53569125	   -359.03285665	    173.10851906	     12.69886961	     11.60531783	    -13.58424907	    -45.00000000	    -35.70409203	     45.00000000	    -45.00000000	  -2778.86127353	     75.28505836	     24.95403512	     26.39269927	   2150.96778736	     48.01025848	     11.03377431	    -15.93293850
